<?xml version="1.0" encoding="UTF-8" standalone="no"?>
<svg width="100px" height="100px" viewBox="0 0 100 100" version="1.1" xmlns="http://www.w3.org/2000/svg" xmlns:xlink="http://www.w3.org/1999/xlink">
    <!-- Generator: Sketch 43.1 (39012) - http://www.bohemiancoding.com/sketch -->
    <title>Artboard 2</title>
    <desc>Created with Sketch.</desc>
    <defs></defs>
    <g id="Page-1" stroke="none" stroke-width="1" fill="none" fill-rule="evenodd">
        <g id="Artboard-2" fill-rule="nonzero" fill="#FF6900">
            <g id="noun_130064_cc" transform="translate(23.000000, 23.000000)">
                <g id="Group">
                    <path d="M15.9290688,51.886008 C9.38785425,48.8588196 4.60307692,43.5915119 2.05927126,37.355504 C-3.5734413,23.4304377 3.14947368,7.62851459 17.0192713,1.9979443 C30.9496356,-3.63262599 46.8181377,3.0877321 52.4508502,16.9522546 C57.9018623,30.4535146 51.7240486,45.8921751 38.459919,51.886008 C36.2795142,52.8547082 34.8259109,49.5853448 36.945749,48.5561008 C48.4534413,43.3493369 53.7833198,29.9691645 49.0591093,18.2842175 C44.2137652,6.29655172 30.4651012,0.484350133 18.4123077,5.32785146 C6.35951417,10.2318966 0.545101215,23.9753316 5.45101215,36.0235411 C7.631417,41.4724801 11.8710931,46.0738064 17.6249393,48.6771883 L18.1700405,45.7710875 C18.2306073,45.4683687 18.6545749,45.3472812 18.8362753,45.65 L23.3182186,53.3996021 L14.354332,54.4893899 C14.051498,54.5499337 13.8092308,54.1261273 14.051498,53.8839523 L15.9290688,51.886008 Z" id="Shape"></path>
                    <path d="M28.40583,40.4432361 C32.5849393,40.4432361 35.3710121,38.5663793 37.1880162,36.1446286 C37.3697166,35.9024536 37.4302834,35.5997347 37.3697166,35.2364721 C37.3091498,34.9337533 37.1274494,34.6915782 36.8246154,34.5099469 L35.1893117,33.6623342 C34.7047773,33.4201592 34.1596761,33.5412467 33.8568421,33.9650531 C32.6455061,35.539191 30.5862348,36.6895225 28.3452632,36.6895225 C24.8929555,36.6895225 22.1068826,34.752122 20.8955466,31.7854775 L29.4354656,31.7854775 C30.0411336,31.7854775 30.525668,31.3011273 30.525668,30.6956897 L30.525668,30.4535146 C30.525668,29.8480769 30.0411336,29.3637268 29.4354656,29.3637268 L20.2898785,29.3637268 C20.2293117,29.0004642 20.2293117,28.5161141 20.2293117,28.0923077 C20.2293117,27.6079576 20.2898785,27.1841512 20.2898785,26.7603448 L29.4960324,26.7603448 C30.1017004,26.7603448 30.5862348,26.2759947 30.5862348,25.670557 L30.5862348,25.428382 C30.5862348,24.8229443 30.1017004,24.3385942 29.4960324,24.3385942 L20.9561134,24.3385942 C22.2280162,21.3719496 24.9535223,19.4950928 28.40583,19.4950928 C30.6468016,19.4950928 32.6455061,20.6454244 33.8568421,22.2195623 C34.1596761,22.6433687 34.7047773,22.7644562 35.1893117,22.5222812 L36.8246154,21.6746684 C37.1274494,21.5535809 37.3091498,21.2508621 37.3697166,20.9481432 C37.4302834,20.6454244 37.3697166,20.3427056 37.1880162,20.0399867 C35.3710121,17.6787798 32.5849393,15.7413793 28.40583,15.7413793 C22.7125506,15.7413793 17.9883401,19.0712865 16.47417,24.2780504 L15.6868016,24.2780504 C15.0811336,24.2780504 14.5965992,24.7624005 14.5965992,25.3678382 L14.5965992,25.6100133 C14.5965992,26.2154509 15.0811336,26.6998011 15.6868016,26.6998011 L16.0502024,26.6998011 C15.9896356,27.1841512 15.9896356,27.6079576 15.9896356,28.0317639 C15.9896356,28.4555703 15.9896356,28.9399204 16.0502024,29.303183 L15.7473684,29.303183 C15.1417004,29.303183 14.657166,29.7875332 14.657166,30.3929708 L14.657166,30.6351459 C14.657166,31.2405836 15.1417004,31.7249337 15.7473684,31.7249337 L16.5347368,31.7249337 C17.9883401,37.1133289 22.6519838,40.4432361 28.40583,40.4432361 Z" id="Shape"></path>
                </g>
            </g>
        </g>
    </g>
</svg>