<?xml version="1.0" encoding="UTF-8"?>
<svg width="100px" height="100px" viewBox="0 0 100 100" version="1.1" xmlns="http://www.w3.org/2000/svg" xmlns:xlink="http://www.w3.org/1999/xlink">
    <!-- Generator: Sketch 43.2 (39069) - http://www.bohemiancoding.com/sketch -->
    <title>C</title>
    <desc>Created with Sketch.</desc>
    <defs></defs>
    <g id="Shopify" stroke="none" stroke-width="1" fill="none" fill-rule="evenodd">
        <g id="Artboard-Copy-2" transform="translate(-353.000000, -19.000000)">
            <g id="noun_954135_cc" transform="translate(379.000000, 46.000000)" fill-rule="nonzero" fill="#FF6900">
                <g id="Group" transform="translate(0.000000, 0.429835)">
                    <path d="M24.4999999,9.9475983e-14 C14.5926609,9.9475983e-14 6.537831,8.05662677 6.537831,17.9661761 C6.537831,21.6119269 7.64289085,24.9987471 9.51451619,27.833973 L0.193239236,41.2915644 C-0.0605689967,41.6586944 -0.0646879553,42.1435709 0.182846646,42.5149617 C0.430381247,42.8863524 0.879441211,43.0690471 1.31587479,42.9759207 L8.47692878,41.546793 L10.3820073,48.1990147 C10.4963277,48.6159516 10.8464126,48.9257595 11.2740797,48.9884548 C11.7017467,49.05115 12.1259919,48.8548575 12.3551244,48.4882701 L20.6558236,35.5240408 C21.8979947,35.7965823 23.1769937,35.932363 24.4999999,35.932363 C25.8172583,35.932363 27.1069965,35.7942957 28.3441763,35.5240408 L36.6448755,48.4882701 C36.874008,48.8548575 37.2982532,49.05115 37.7259202,48.9884548 C38.1535873,48.9257595 38.5036722,48.6159516 38.6179926,48.1990147 L40.5230711,41.546793 L47.6841252,42.9759207 C48.1205588,43.0690471 48.5696188,42.8863524 48.8171534,42.5149617 C49.064688,42.1435709 49.060569,41.6586944 48.8067608,41.2915644 L39.5024933,27.8509592 C41.37825,25.0136645 42.4621689,21.6163096 42.4621689,17.9661761 C42.4621689,8.05662677 34.407339,9.9475983e-14 24.4999999,9.9475983e-14 Z M24.4999999,2.17771831 C33.2306755,2.17771831 40.2849363,9.23355286 40.2849363,17.9661761 C40.2849363,26.6987829 33.2306755,33.7546447 24.4999999,33.7546447 C15.7693244,33.7546447 8.7150636,26.6987829 8.7150636,17.9661761 C8.7150636,9.23355286 15.7693244,2.17771831 24.4999999,2.17771831 Z M24.4149518,6.53315493 C24.025894,6.56276322 23.6822679,6.79622172 23.5134414,7.1456382 L20.7578814,12.7260414 L14.5493666,13.6107394 C14.1351173,13.6669839 13.7895125,13.9531215 13.6592132,14.347727 C13.5289138,14.7423325 13.6367731,15.1761958 13.9370199,15.4652027 L18.4275621,19.8206393 L17.3729651,25.9624964 C17.3054457,26.3680002 17.4743665,26.7765937 17.8093085,27.0179441 C18.1442506,27.2592945 18.587726,27.2919776 18.9548607,27.1023686 L24.4999999,24.2100864 L30.0451392,27.1023686 C30.2080786,27.1853373 30.3893989,27.226299 30.5724377,27.2214898 C30.8915793,27.2195128 31.1938945,27.0790267 31.399943,26.8369474 C31.6059916,26.5948682 31.6951699,26.2754021 31.6440444,25.9624964 L30.5724377,19.8206393 L35.06298,15.4652027 C35.3624959,15.1785115 35.4721276,14.7477587 35.3457612,14.3541297 C35.2193947,13.9605007 34.8789563,13.6722951 34.4676429,13.6107394 L28.2591281,12.7260414 L25.4865585,7.1456382 C25.2911972,6.74105207 24.8652873,6.49762073 24.4149518,6.53315493 Z M24.4999999,10.0889606 L26.5581651,14.2062093 C26.719882,14.5190377 27.024188,14.7346358 27.3746274,14.7846657 L31.9502177,15.4481893 L28.63334,18.646713 C28.3757712,18.8995846 28.2610976,19.2627989 28.3271666,19.6164782 L29.1096096,24.1420327 L25.0102888,22.015371 C24.6910001,21.8478485 24.3089997,21.8478485 23.9897111,22.015371 L19.8903903,24.1420327 L20.6728333,19.6164782 C20.7389023,19.2627989 20.6242287,18.8995846 20.3666599,18.646713 L17.0497821,15.4481893 L21.6253725,14.7846657 C21.9821052,14.73983 22.2937855,14.5235138 22.4588444,14.2062093 L24.4999999,10.0889606 Z M10.8922962,29.6714229 C12.9056594,32.011109 15.4995054,33.8348936 18.4615814,34.8945169 L11.8278258,45.2727057 L10.3139688,39.981558 C10.1565648,39.4302151 9.59869335,39.0954056 9.03824656,39.2159267 L3.52712654,40.3218265 L10.8922962,29.6714229 Z M38.1077037,29.6883002 L45.4728733,40.3216631 L39.9617533,39.2158178 C39.4013226,39.0952921 38.843458,39.4300736 38.6860311,39.9813947 L37.1721741,45.2725968 L30.5384185,34.894408 C33.4939192,33.8376158 36.0959136,32.0199287 38.1077037,29.6883002 L38.1077037,29.6883002 Z" id="Shape"></path>
                </g>
            </g>
            <g id="Group-2" transform="translate(7.000000, 19.000000)"></g>
        </g>
    </g>
</svg>