<?xml version="1.0" encoding="UTF-8"?>
<svg width="100px" height="100px" viewBox="0 0 100 100" version="1.1" xmlns="http://www.w3.org/2000/svg" xmlns:xlink="http://www.w3.org/1999/xlink">
    <!-- Generator: Sketch 43.2 (39069) - http://www.bohemiancoding.com/sketch -->
    <title>B</title>
    <desc>Created with Sketch.</desc>
    <defs></defs>
    <g id="Shopify" stroke="none" stroke-width="1" fill="none" fill-rule="evenodd">
        <g id="Artboard-Copy-2" transform="translate(-699.000000, -19.000000)">
            <g id="noun_1032097_cc" transform="translate(730.000000, 50.000000)" stroke="#FF6900" stroke-width="0.8" fill="#FF6900" fill-rule="nonzero">
                <path d="M38,6.74193548 C38,6.68064516 38,6.61935484 37.9387097,6.55806452 C37.9387097,6.55806452 37.9387097,6.55806452 37.9387097,6.49677419 L37.9387097,6.49677419 L35.2419355,1.04193548 C34.9354839,0.429032258 34.3225806,0 33.5870968,0 L4.41290323,0 C3.73870968,0 3.06451613,0.367741935 2.75806452,1.04193548 L0.0612903226,6.49677419 L0.0612903226,6.49677419 C0.0612903226,6.49677419 0.0612903226,6.49677419 0.0612903226,6.55806452 C0.0612903226,6.61935484 0,6.68064516 0,6.74193548 L0,6.74193548 L0,14.4645161 C0,16.5483871 1.28709677,18.3870968 3.06451613,19.183871 L3.06451613,37.3870968 C3.06451613,37.7548387 3.30967742,38 3.67741935,38 L34.3225806,38 C34.6903226,38 34.9354839,37.7548387 34.9354839,37.3870968 L34.9354839,19.183871 C36.7129032,18.3870968 38,16.6096774 38,14.4645161 L38,6.74193548 L38,6.74193548 Z M27.5806452,14.4645161 C27.5806452,16.6096774 25.8032258,18.3870968 23.6580645,18.3870968 L23.4741935,18.3870968 C21.3290323,18.3870968 19.5516129,16.6096774 19.5516129,14.4645161 L19.5516129,7.35483871 L27.5193548,7.35483871 L27.5193548,14.4645161 L27.5806452,14.4645161 Z M18.3870968,14.4645161 C18.3870968,16.6096774 16.6096774,18.3870968 14.4645161,18.3870968 L14.2806452,18.3870968 C12.1354839,18.3870968 10.3580645,16.6096774 10.3580645,14.4645161 L10.3580645,7.35483871 L18.3258065,7.35483871 L18.3258065,14.4645161 L18.3870968,14.4645161 Z M3.86129032,1.59354839 C3.98387097,1.40967742 4.16774194,1.22580645 4.41290323,1.22580645 L33.5258065,1.22580645 C33.7709677,1.22580645 33.9548387,1.3483871 34.0774194,1.59354839 L36.3451613,6.12903226 L1.59354839,6.12903226 L3.86129032,1.59354839 Z M1.22580645,14.4645161 L1.22580645,7.35483871 L9.19354839,7.35483871 L9.19354839,14.4645161 C9.19354839,16.6096774 7.41612903,18.3870968 5.27096774,18.3870968 L5.08709677,18.3870968 C3.00322581,18.3870968 1.22580645,16.6096774 1.22580645,14.4645161 Z M27.5806452,36.7741935 L10.4193548,36.7741935 L10.4193548,25.7419355 L27.5806452,25.7419355 L27.5806452,36.7741935 Z M33.7096774,36.7741935 L28.8064516,36.7741935 L28.8064516,25.1290323 C28.8064516,24.7612903 28.5612903,24.516129 28.1935484,24.516129 L9.80645161,24.516129 C9.43870968,24.516129 9.19354839,24.7612903 9.19354839,25.1290323 L9.19354839,36.7741935 L4.29032258,36.7741935 L4.29032258,19.5516129 C4.53548387,19.6129032 4.84193548,19.6129032 5.1483871,19.6129032 L5.33225806,19.6129032 C7.29354839,19.6129032 9.00967742,18.5096774 9.86774194,16.916129 C10.7258065,18.5096774 12.4419355,19.6129032 14.4032258,19.6129032 L14.5870968,19.6129032 C16.5483871,19.6129032 18.2645161,18.5096774 19.1225806,16.916129 C19.9806452,18.5096774 21.6967742,19.6129032 23.6580645,19.6129032 L23.8419355,19.6129032 C25.8032258,19.6129032 27.5193548,18.5096774 28.3774194,16.916129 C29.2354839,18.5096774 30.9516129,19.6129032 32.9129032,19.6129032 L33.0967742,19.6129032 C33.4032258,19.6129032 33.6483871,19.6129032 33.9548387,19.5516129 L33.9548387,36.7741935 L33.7096774,36.7741935 Z M36.7741935,14.4645161 C36.7741935,16.6096774 34.9967742,18.3870968 32.8516129,18.3870968 L32.6677419,18.3870968 C30.5225806,18.3870968 28.7451613,16.6096774 28.7451613,14.4645161 L28.7451613,7.35483871 L36.7129032,7.35483871 L36.7129032,14.4645161 L36.7741935,14.4645161 Z" id="Shape"></path>
            </g>
            <g id="Group-2" transform="translate(7.000000, 19.000000)"></g>
        </g>
    </g>
</svg>