<?xml version="1.0" encoding="UTF-8"?>
<svg width="100px" height="100px" viewBox="0 0 100 100" version="1.1" xmlns="http://www.w3.org/2000/svg" xmlns:xlink="http://www.w3.org/1999/xlink">
    <!-- Generator: Sketch 43.2 (39069) - http://www.bohemiancoding.com/sketch -->
    <title>A</title>
    <desc>Created with Sketch.</desc>
    <defs></defs>
    <g id="Shopify" stroke="none" stroke-width="1" fill="none" fill-rule="evenodd">
        <g id="Artboard-Copy-2" transform="translate(-1045.000000, -19.000000)">
            <path d="M1109.80625,83.5 C1107.88491,83.5 1106.3224,81.93025 1106.3224,80 C1106.3224,78.06975 1107.88491,76.5 1109.80625,76.5 C1111.7276,76.5 1113.29011,78.06975 1113.29011,80 C1113.29011,81.93025 1111.7276,83.5 1109.80625,83.5 L1109.80625,83.5 Z M1108.91264,60.75875 L1110.67547,64.25 L1106.3224,64.25 L1106.3224,60.757 L1108.91264,60.75875 Z M1080.19349,83.5 C1078.27214,83.5 1076.70964,81.93025 1076.70964,80 C1076.70964,78.06975 1078.27214,76.5 1080.19349,76.5 C1082.11484,76.5 1083.67734,78.06975 1083.67734,80 C1083.67734,81.93025 1082.11484,83.5 1080.19349,83.5 L1080.19349,83.5 Z M1081.26437,63.4371843 L1078.07709,60.249907 C1077.79922,59.9720323 1077.79912,59.523479 1078.07572,59.2468795 L1079.54894,57.773661 C1079.82137,57.5012275 1080.27461,57.4976759 1080.55196,57.7750333 L1083.73924,60.9623106 L1086.92652,57.7750333 C1087.20439,57.4971585 1087.65295,57.4970616 1087.92955,57.773661 L1089.40277,59.2468795 C1089.6752,59.519313 1089.67875,59.9725497 1089.40139,60.249907 L1086.21412,63.4371843 L1089.40139,66.6244617 C1089.67927,66.9023364 1089.67936,67.3508897 1089.40277,67.6274892 L1087.92955,69.1007077 C1087.65711,69.3731412 1087.20388,69.3766927 1086.92652,69.0993354 L1083.73924,65.9120581 L1080.55196,69.0993354 C1080.27409,69.3772101 1079.82554,69.3773071 1079.54894,69.1007077 L1078.07572,67.6274892 C1077.80329,67.3550557 1077.79973,66.901819 1078.07709,66.6244617 L1081.26437,63.4371843 Z M1120.55046,69.33725 L1121.95271,77.67075 C1122.11994,78.684 1121.83949,79.71475 1121.17755,80.5005 C1120.50865,81.295 1119.52969,81.75 1118.48976,81.75 L1116.52661,81.75 C1115.74797,84.76175 1113.04449,87 1109.80625,87 C1106.56801,87 1103.86454,84.76175 1103.0859,81.75 L1099.35469,81.75 L1086.91385,81.75 C1086.1352,84.76175 1083.43173,87 1080.19349,87 C1076.95525,87 1074.25178,84.76175 1073.47314,81.75 L1068,81.75 L1068,73 L1071.48385,73 L1071.48385,78.25 L1073.47314,78.25 C1074.25178,75.23825 1076.95525,73 1080.19349,73 C1083.43173,73 1086.1352,75.23825 1086.91385,78.25 L1095.87083,78.25 L1095.87083,55.5 L1071.48385,55.5 L1071.48385,73 L1068,73 L1068,55.5 C1068,53.56975 1069.56251,52 1071.48385,52 L1095.87083,52 C1097.79218,52 1099.35469,53.56975 1099.35469,55.5 L1099.35469,57.25 L1108.88651,57.25 C1110.21909,57.25 1111.42102,57.9885 1112.0185,59.17675 L1114.58087,64.25 L1115.27765,64.25 C1118.13092,64.25 1120.46336,66.518 1120.55046,69.33725 Z M1116.52661,78.25 L1118.48976,78.25 L1117.06835,69.5 C1117.06835,68.534 1116.26532,67.75 1115.27765,67.75 L1113.29011,67.75 L1112.44179,67.75 L1106.3224,67.75 C1104.40105,67.75 1102.83854,66.18025 1102.83854,64.25 L1102.83854,60.75 L1099.35469,60.7465 L1099.35469,78.25 L1103.0859,78.25 C1103.86454,75.23825 1106.56801,73 1109.80625,73 C1113.04449,73 1115.74797,75.23825 1116.52661,78.25 Z" id="Icon" stroke="#FFFFFF" stroke-width="1.408" fill="#FF6900"></path>
            <g id="Group-2" transform="translate(7.000000, 19.000000)"></g>
        </g>
    </g>
</svg>