<svg xmlns="http://www.w3.org/2000/svg" viewBox="0 0 2049.12 612.68"><defs><style>.cls-1{fill:#ff6900;}.cls-2{fill:#53575a;}.cls-3{fill:#fff;}</style></defs><g id="Calque_2" data-name="Calque 2"><g id="Calque_1-2" data-name="Calque 1"><path class="cls-1" d="M1999,612.68H1020.79a50.25,50.25,0,0,1-50.12-50.07V50.08A50.25,50.25,0,0,1,1020.79,0H1999a50.23,50.23,0,0,1,50.09,50.08V562.61A50.23,50.23,0,0,1,1999,612.68"/><path class="cls-2" d="M386.05,537.37a10,10,0,0,1-9.66-7.59L300.07,223.3h-1.29l-75,306.41a10,10,0,0,1-9.71,7.66H126.84a10.1,10.1,0,0,1-9.68-7.45L.34,88.59A10,10,0,0,1,10.06,76H90.52a10,10,0,0,1,9.7,7.73L171.48,390h1.27L251,83.52A10,10,0,0,1,260.69,76h79.36a10.06,10.06,0,0,1,9.74,7.62l76.9,310.29H428L501.77,83.69A10,10,0,0,1,511.54,76H590a10,10,0,0,1,9.72,12.61L481,530a10,10,0,0,1-9.67,7.42Z"/><path class="cls-2" d="M701.31,457.21c13.78,13.39,33.64,20,59.44,20,18.53,0,34.48-4.59,47.84-13.88,10.84-7.55,18.26-15.39,22.29-23.62a10,10,0,0,1,9-5.77h59.81a10,10,0,0,1,9.37,13.54q-19.22,49.55-54.64,72.39-40,25.82-96.89,25.8-39.43,0-71.06-12.57t-53.69-35.86c-14.63-15.49-26-34-33.9-55.58S587,396.49,587,370.63q0-37.49,12.22-69.77A163.3,163.3,0,0,1,634.13,245a165.16,165.16,0,0,1,53.93-37.15c20.93-9,44.05-13.59,69.5-13.59,28.39,0,53.16,5.55,74.28,16.49a148.93,148.93,0,0,1,52,44.26q20.29,27.78,29.32,63.3a230.69,230.69,0,0,1,6.95,64.8,9.91,9.91,0,0,1-10,9.52H689.49a10,10,0,0,0-10,11q3.78,36.12,21.81,53.6M805,281.48c-11-12-27.68-18.13-50.09-18.13-14.62,0-26.81,2.48-36.49,7.47S701,281.93,695.18,289.24a67.2,67.2,0,0,0-12.27,23.24c-1,3.53-1.86,6.89-2.5,10.1a9.93,9.93,0,0,0,9.8,11.87H815.49A9.94,9.94,0,0,0,825.16,322C820.72,304.81,814,291.3,805,281.48"/><path class="cls-3" d="M1364.16,86v65.26a10.06,10.06,0,0,1-10.05,10.05H1151.27a10,10,0,0,0-10,10v86.57a10,10,0,0,0,10,10h173.17a10,10,0,0,1,10,10v58.83a10,10,0,0,1-10,10H1151.27a10,10,0,0,0-10,10V527.33a10,10,0,0,1-10,10h-81.42a10,10,0,0,1-10-10V86a10,10,0,0,1,10-10h304.3a10,10,0,0,1,10.05,10"/><path class="cls-3" d="M1440.31,151.65V86a10,10,0,0,1,10-10h71.73a10,10,0,0,1,10,10v65.65a10.06,10.06,0,0,1-10,10h-71.73a10,10,0,0,1-10-10m91.77,72.63V527.34a10,10,0,0,1-10,10h-71.73a10,10,0,0,1-10-10V224.28a10,10,0,0,1,10-10h71.73a10,10,0,0,1,10,10"/><path class="cls-3" d="M1610.57,483.67l50.71,50.71a10,10,0,0,0,14.16,0l305-305a10,10,0,0,0,0-14.15l-50.7-50.75a10,10,0,0,0-14.17,0l-305,305a10,10,0,0,0,0,14.16"/><path class="cls-3" d="M1675.43,164.46a10,10,0,0,0-14.16,0l-50.71,50.75a10,10,0,0,0,0,14.15l102.25,102.25,64.87-64.85Z"/><path class="cls-3" d="M1980.45,469.51,1878.13,367.16l-64.87,64.9,102.32,102.32a10,10,0,0,0,14.17,0l50.7-50.71a10,10,0,0,0,0-14.16"/></g></g></svg>